<svg width="404" height="59" viewBox="0 0 404 59" fill="none" xmlns="http://www.w3.org/2000/svg">
<path d="M137.8 29.64C135.533 29.64 133.44 29.2933 131.52 28.6C129.627 27.88 127.973 26.8667 126.56 25.56C125.173 24.2533 124.093 22.7067 123.32 20.92C122.547 19.1333 122.16 17.16 122.16 15C122.16 12.84 122.547 10.8667 123.32 9.08C124.093 7.29333 125.187 5.74667 126.6 4.44C128.013 3.13333 129.68 2.13333 131.6 1.44C133.547 0.719999 135.68 0.359999 138 0.359999C140.773 0.359999 143.24 0.826665 145.4 1.76C147.587 2.69333 149.387 4.02667 150.8 5.76L144.76 11.08C143.88 10.0667 142.92 9.30667 141.88 8.8C140.867 8.26667 139.733 8 138.48 8C137.44 8 136.493 8.16 135.64 8.48C134.813 8.8 134.107 9.26667 133.52 9.88C132.933 10.4933 132.48 11.2267 132.16 12.08C131.84 12.9333 131.68 13.9067 131.68 15C131.68 16.04 131.84 17 132.16 17.88C132.48 18.7333 132.933 19.4667 133.52 20.08C134.107 20.6933 134.8 21.1733 135.6 21.52C136.427 21.84 137.347 22 138.36 22C139.427 22 140.467 21.8267 141.48 21.48C142.493 21.1067 143.573 20.48 144.72 19.6L150 26.08C148.293 27.2267 146.347 28.1067 144.16 28.72C141.973 29.3333 139.853 29.64 137.8 29.64ZM141.8 24.88V14.24H150V26.08L141.8 24.88ZM169.702 29.64C167.436 29.64 165.329 29.28 163.382 28.56C161.462 27.84 159.796 26.8267 158.382 25.52C156.969 24.1867 155.862 22.6267 155.062 20.84C154.289 19.0533 153.902 17.1067 153.902 15C153.902 12.8667 154.289 10.92 155.062 9.16C155.862 7.37333 156.969 5.82667 158.382 4.52C159.796 3.18666 161.462 2.16 163.382 1.44C165.329 0.719999 167.436 0.359999 169.702 0.359999C171.996 0.359999 174.102 0.719999 176.022 1.44C177.942 2.16 179.609 3.18666 181.022 4.52C182.436 5.82667 183.529 7.37333 184.302 9.16C185.102 10.92 185.502 12.8667 185.502 15C185.502 17.1067 185.102 19.0533 184.302 20.84C183.529 22.6267 182.436 24.1867 181.022 25.52C179.609 26.8267 177.942 27.84 176.022 28.56C174.102 29.28 171.996 29.64 169.702 29.64ZM169.702 22C170.582 22 171.396 21.84 172.142 21.52C172.916 21.2 173.582 20.7467 174.142 20.16C174.729 19.5467 175.182 18.8133 175.502 17.96C175.822 17.08 175.982 16.0933 175.982 15C175.982 13.9067 175.822 12.9333 175.502 12.08C175.182 11.2 174.729 10.4667 174.142 9.88C173.582 9.26667 172.916 8.8 172.142 8.48C171.396 8.16 170.582 8 169.702 8C168.822 8 167.996 8.16 167.222 8.48C166.476 8.8 165.809 9.26667 165.222 9.88C164.662 10.4667 164.222 11.2 163.902 12.08C163.582 12.9333 163.422 13.9067 163.422 15C163.422 16.0933 163.582 17.08 163.902 17.96C164.222 18.8133 164.662 19.5467 165.222 20.16C165.809 20.7467 166.476 21.2 167.222 21.52C167.996 21.84 168.822 22 169.702 22ZM204.608 29.64C202.342 29.64 200.235 29.28 198.288 28.56C196.368 27.84 194.702 26.8267 193.288 25.52C191.875 24.1867 190.768 22.6267 189.968 20.84C189.195 19.0533 188.808 17.1067 188.808 15C188.808 12.8667 189.195 10.92 189.968 9.16C190.768 7.37333 191.875 5.82667 193.288 4.52C194.702 3.18666 196.368 2.16 198.288 1.44C200.235 0.719999 202.342 0.359999 204.608 0.359999C206.902 0.359999 209.008 0.719999 210.928 1.44C212.848 2.16 214.515 3.18666 215.928 4.52C217.342 5.82667 218.435 7.37333 219.208 9.16C220.008 10.92 220.408 12.8667 220.408 15C220.408 17.1067 220.008 19.0533 219.208 20.84C218.435 22.6267 217.342 24.1867 215.928 25.52C214.515 26.8267 212.848 27.84 210.928 28.56C209.008 29.28 206.902 29.64 204.608 29.64ZM204.608 22C205.488 22 206.302 21.84 207.048 21.52C207.822 21.2 208.488 20.7467 209.048 20.16C209.635 19.5467 210.088 18.8133 210.408 17.96C210.728 17.08 210.888 16.0933 210.888 15C210.888 13.9067 210.728 12.9333 210.408 12.08C210.088 11.2 209.635 10.4667 209.048 9.88C208.488 9.26667 207.822 8.8 207.048 8.48C206.302 8.16 205.488 8 204.608 8C203.728 8 202.902 8.16 202.128 8.48C201.382 8.8 200.715 9.26667 200.128 9.88C199.568 10.4667 199.128 11.2 198.808 12.08C198.488 12.9333 198.328 13.9067 198.328 15C198.328 16.0933 198.488 17.08 198.808 17.96C199.128 18.8133 199.568 19.5467 200.128 20.16C200.715 20.7467 201.382 21.2 202.128 21.52C202.902 21.84 203.728 22 204.608 22ZM224.835 29V0.999998H238.635C241.755 0.999998 244.501 1.57333 246.875 2.72C249.248 3.84 251.101 5.44 252.435 7.52C253.768 9.6 254.435 12.08 254.435 14.96C254.435 17.8667 253.768 20.3733 252.435 22.48C251.101 24.56 249.248 26.1733 246.875 27.32C244.501 28.44 241.755 29 238.635 29H224.835ZM234.275 21.64H238.235C239.568 21.64 240.728 21.3867 241.715 20.88C242.728 20.3733 243.515 19.6267 244.075 18.64C244.635 17.6267 244.915 16.4 244.915 14.96C244.915 13.5467 244.635 12.3467 244.075 11.36C243.515 10.3733 242.728 9.62667 241.715 9.12C240.728 8.61333 239.568 8.36 238.235 8.36H234.275V21.64ZM121.24 59L127.58 45H129.56L135.92 59H133.82L128.16 46.12H128.96L123.3 59H121.24ZM123.94 55.5L124.48 53.9H132.36L132.94 55.5H123.94ZM149.836 59V45H161.896V59H159.936V46.22L160.416 46.74H151.316L151.816 46.22V59H149.836ZM175.822 59L182.162 45H184.142L190.502 59H188.402L182.742 46.12H183.542L177.882 59H175.822ZM178.522 55.5L179.062 53.9H186.942L187.522 55.5H178.522ZM204.418 59V45H209.878C211.105 45 212.152 45.1933 213.018 45.58C213.885 45.9667 214.552 46.5267 215.018 47.26C215.485 47.9933 215.718 48.8667 215.718 49.88C215.718 50.8933 215.485 51.7667 215.018 52.5C214.552 53.22 213.885 53.78 213.018 54.18C212.152 54.5667 211.105 54.76 209.878 54.76H205.518L206.418 53.82V59H204.418ZM206.418 54.02L205.518 53.02H209.818C211.098 53.02 212.065 52.7467 212.718 52.2C213.385 51.6533 213.718 50.88 213.718 49.88C213.718 48.88 213.385 48.1067 212.718 47.56C212.065 47.0133 211.098 46.74 209.818 46.74H205.518L206.418 45.74V54.02ZM232.411 59V46.22L232.911 46.74H227.631V45H239.171V46.74H233.891L234.371 46.22V59H232.411ZM250.459 59L256.799 45H258.779L265.139 59H263.039L257.379 46.12H258.179L252.519 59H250.459ZM253.159 55.5L253.699 53.9H261.579L262.159 55.5H253.159ZM279.055 59V45H280.695L286.975 55.58H286.095L292.295 45H293.935L293.955 59H292.035L292.015 48.02H292.475L286.955 57.3H286.035L280.475 48.02H280.975V59H279.055ZM311.633 51.04H318.833V52.74H311.633V51.04ZM311.813 57.26H319.973V59H309.813V45H319.693V46.74H311.813V57.26ZM344.654 45H346.654V59H344.654V45ZM336.614 59H334.614V45H336.614V59ZM344.834 52.76H336.414V51.02H344.834V52.76ZM365.38 59V46.22L365.88 46.74H360.6V45H372.14V46.74H366.86L367.34 46.22V59H365.38ZM392.211 49.88C393.864 49.88 395.137 50.2533 396.031 51C396.924 51.7333 397.371 52.8333 397.371 54.3C397.371 55.8467 396.884 57.02 395.911 57.82C394.951 58.6067 393.597 59 391.851 59H386.071V45H388.051V49.88H392.211ZM391.771 57.42C392.931 57.42 393.817 57.16 394.431 56.64C395.057 56.12 395.371 55.3533 395.371 54.34C395.371 53.3533 395.064 52.6267 394.451 52.16C393.837 51.6933 392.944 51.46 391.771 51.46H388.051V57.42H391.771ZM399.591 59V45H401.571V59H399.591Z" fill="#282A30"/>
<path d="M280.674 29L268.834 0.999998H278.994L288.634 24.64H282.594L292.514 0.999998H301.794L289.954 29H280.674ZM303.733 29V0.999998H313.173V29H303.733ZM318.718 29V0.999998H333.678C337.544 0.999998 340.398 1.69333 342.238 3.08C344.078 4.44 344.998 6.18667 344.998 8.32C344.998 9.73333 344.598 11 343.798 12.12C343.024 13.2133 341.891 14.08 340.398 14.72C338.904 15.36 337.064 15.68 334.878 15.68L335.678 13.52C337.864 13.52 339.744 13.8267 341.318 14.44C342.918 15.0533 344.144 15.9467 344.998 17.12C345.878 18.2667 346.318 19.6533 346.318 21.28C346.318 23.7067 345.304 25.6 343.278 26.96C341.278 28.32 338.344 29 334.478 29H318.718ZM327.998 22.4H333.678C334.718 22.4 335.491 22.2133 335.998 21.84C336.531 21.4667 336.798 20.92 336.798 20.2C336.798 19.48 336.531 18.9333 335.998 18.56C335.491 18.1867 334.718 18 333.678 18H327.358V11.76H332.398C333.464 11.76 334.238 11.5867 334.718 11.24C335.224 10.8667 335.478 10.3467 335.478 9.68C335.478 8.98667 335.224 8.46667 334.718 8.12C334.238 7.77333 333.464 7.6 332.398 7.6H327.998V22.4ZM359.295 11.4H371.775V18.2H359.295V11.4ZM359.935 21.88H373.935V29H350.655V0.999998H373.415V8.12H359.935V21.88ZM389.009 29.64C386.662 29.64 384.396 29.3733 382.209 28.84C380.022 28.3067 378.222 27.6133 376.809 26.76L379.849 19.88C381.182 20.6533 382.662 21.28 384.289 21.76C385.942 22.2133 387.542 22.44 389.089 22.44C389.996 22.44 390.702 22.3867 391.209 22.28C391.742 22.1467 392.129 21.9733 392.369 21.76C392.609 21.52 392.729 21.24 392.729 20.92C392.729 20.4133 392.449 20.0133 391.889 19.72C391.329 19.4267 390.582 19.1867 389.649 19C388.742 18.7867 387.742 18.5733 386.649 18.36C385.556 18.12 384.449 17.8133 383.329 17.44C382.236 17.0667 381.222 16.5733 380.289 15.96C379.382 15.3467 378.649 14.5467 378.089 13.56C377.529 12.5467 377.249 11.2933 377.249 9.8C377.249 8.06667 377.729 6.49333 378.689 5.08C379.676 3.64 381.129 2.49333 383.049 1.64C384.996 0.786666 387.409 0.359999 390.289 0.359999C392.182 0.359999 394.049 0.559999 395.889 0.959999C397.729 1.36 399.382 1.97333 400.849 2.8L398.009 9.64C396.622 8.94666 395.276 8.42667 393.969 8.08C392.689 7.73333 391.436 7.56 390.209 7.56C389.302 7.56 388.582 7.64 388.049 7.8C387.516 7.96 387.129 8.17333 386.889 8.44C386.676 8.70667 386.569 9 386.569 9.32C386.569 9.8 386.849 10.1867 387.409 10.48C387.969 10.7467 388.702 10.9733 389.609 11.16C390.542 11.3467 391.556 11.5467 392.649 11.76C393.769 11.9733 394.876 12.2667 395.969 12.64C397.062 13.0133 398.062 13.5067 398.969 14.12C399.902 14.7333 400.649 15.5333 401.209 16.52C401.769 17.5067 402.049 18.7333 402.049 20.2C402.049 21.9067 401.556 23.48 400.569 24.92C399.609 26.3333 398.169 27.48 396.249 28.36C394.329 29.2133 391.916 29.64 389.009 29.64Z" fill="#F7515C"/>
<path d="M94.5 9.76741V19.8604C93.3081 19.6361 92.0928 19.5269 90.875 19.5348H90.5125C89.6768 15.8578 87.4523 12.5531 84.2155 10.1799C80.9787 7.80671 76.9284 6.51084 72.75 6.5116H65.5C62.6862 6.5116 59.911 7.10001 57.3943 8.23023C54.8775 9.36044 52.6883 11.0014 51 13.0232C49.3117 11.0014 47.1225 9.36044 44.6057 8.23023C42.089 7.10001 39.3138 6.5116 36.5 6.5116H29.25C25.0716 6.51084 21.0213 7.80671 17.7845 10.1799C14.5477 12.5531 12.3232 15.8578 11.4875 19.5348H11.125C9.9072 19.5269 8.69195 19.6361 7.5 19.8604V9.76741C7.5 7.17693 8.64576 4.69255 10.6852 2.86081C12.7247 1.02906 15.4908 0 18.375 0H83.625C86.5092 0 89.2753 1.02906 91.3148 2.86081C93.3542 4.69255 94.5 7.17693 94.5 9.76741Z" fill="#F7515C"/>
<path d="M91.0714 22.9732H10.9286C4.89289 22.9732 0 27.8121 0 33.7812V48.192C0 54.1611 4.89289 59 10.9286 59H91.0714C97.1071 59 102 54.1611 102 48.192V33.7812C102 27.8121 97.1071 22.9732 91.0714 22.9732Z" fill="#F7515C"/>
<path d="M82.9726 19.5348H55.2776C56.0255 17.6349 57.4093 15.9892 59.2395 14.8235C61.0696 13.6577 63.2564 13.0289 65.5001 13.0232H72.7501C74.9938 13.0289 77.1806 13.6577 79.0107 14.8235C80.8408 15.9892 82.2247 17.6349 82.9726 19.5348ZM46.7226 19.5348H19.0276C19.7755 17.6349 21.1593 15.9892 22.9895 14.8235C24.8196 13.6577 27.0064 13.0289 29.2501 13.0232H36.5001C38.7438 13.0289 40.9306 13.6577 42.7607 14.8235C44.5908 15.9892 45.9747 17.6349 46.7226 19.5348Z" fill="#282A30"/>
</svg>
